<svg xmlns="http://www.w3.org/2000/svg" width="215" height="60" viewBox="0 0 215 60" fill="none">
  <path d="M34.8883 0.455566H0V10.3239H34.8883V0.455566Z" fill="white"/>
  <path d="M25.0752 25.6081L0 25.4426L8.99536 15.7397H34.8883L25.0752 25.6081Z" fill="white"/>
  <path d="M12.1037 25.3975L0 38.034V25.443L11.1816 24.4624L12.1037 25.3975Z" fill="white"/>
  <path d="M34.8882 7.27445V15.7401H26.1515V0.455566L34.8882 7.07584" fill="white"/>
  <path d="M0 46.4128V59.583L17.9782 42.1344L21.8626 45.8252H27.0403L47.6137 25.6955L50.3507 28.4139L54.7899 11.2881L38.368 15.5002L40.9965 18.107L24.2908 34.6742L20.8404 31.2523H15.4415L0 46.4128Z" fill="white"/>
  <path d="M74.6628 23.8625V1.53564H83.1075C84.839 1.53564 86.2909 1.83356 87.4675 2.42938C88.644 3.02521 89.5327 3.86102 90.1377 4.93267C90.7427 6.00433 91.0431 7.2539 91.0431 8.67726C91.0431 10.1089 90.7385 11.3502 90.1252 12.4012C89.5119 13.4521 88.6148 14.2631 87.4257 14.8341C86.2366 15.4051 84.7805 15.6906 83.0491 15.6906H77.0369V12.335H82.4983C83.5122 12.335 84.3383 12.1943 84.9808 11.9129C85.6275 11.6316 86.1031 11.2219 86.4161 10.6799C86.729 10.1379 86.8834 9.4717 86.8834 8.67726C86.8834 7.88283 86.7248 7.20839 86.4119 6.64567C86.0948 6.08294 85.615 5.65263 84.9725 5.35885C84.3258 5.06508 83.4955 4.91612 82.4775 4.91612H78.7391V23.8625H74.6628ZM86.2951 13.7459L91.8692 23.8625H87.3173L81.8433 13.7459H86.2951Z" fill="white"/>
  <path d="M98.8657 24.2017C97.7976 24.2017 96.8338 24.0114 95.9785 23.6307C95.1232 23.25 94.4514 22.6832 93.9549 21.9343C93.4584 21.1853 93.2123 20.2626 93.2123 19.1662C93.2123 18.2228 93.3875 17.4408 93.738 16.8242C94.0884 16.2077 94.5683 15.7112 95.1774 15.343C95.7866 14.9706 96.475 14.6892 97.2385 14.4989C98.002 14.3085 98.7989 14.1679 99.6167 14.0768C100.605 13.9734 101.407 13.8824 102.024 13.7996C102.642 13.7169 103.088 13.5844 103.372 13.4065C103.655 13.2286 103.797 12.9514 103.797 12.5707V12.5045C103.797 11.6811 103.551 11.0481 103.059 10.5971C102.566 10.146 101.861 9.92261 100.939 9.92261C99.963 9.92261 99.1911 10.1336 98.6237 10.5557C98.0563 10.9777 97.6724 11.4742 97.4763 12.0494L93.763 11.528C94.0551 10.5102 94.5391 9.6578 95.215 8.97095C95.8909 8.28409 96.7128 7.76689 97.6891 7.42346C98.6654 7.08003 99.7418 6.90625 100.923 6.90625C101.736 6.90625 102.546 7.00142 103.351 7.19175C104.156 7.38208 104.895 7.69241 105.562 8.12273C106.23 8.55718 106.764 9.14059 107.173 9.88537C107.577 10.626 107.782 11.5529 107.782 12.6659V23.8748H103.956V21.5743H103.822C103.58 22.0377 103.242 22.4722 102.804 22.8777C102.366 23.2831 101.824 23.6059 101.165 23.85C100.514 24.0776 99.746 24.2017 98.8657 24.2017ZM99.9004 21.3012C100.697 21.3012 101.39 21.144 101.978 20.8254C102.562 20.5109 103.017 20.0889 103.334 19.5675C103.651 19.0462 103.81 18.4752 103.81 17.8545V15.8809C103.685 15.9843 103.476 16.0753 103.18 16.1664C102.884 16.2532 102.55 16.3319 102.187 16.3939C101.82 16.4601 101.457 16.5181 101.098 16.5677C100.739 16.6174 100.426 16.6629 100.163 16.7001C99.5708 16.7787 99.0367 16.9111 98.5694 17.0932C98.098 17.2752 97.7308 17.5276 97.4596 17.8504C97.1884 18.1731 97.0507 18.591 97.0507 19.1C97.0507 19.8282 97.3178 20.3744 97.8518 20.7468C98.39 21.115 99.0701 21.3012 99.9004 21.3012Z" fill="white"/>
  <path d="M111.174 30.1434V7.11725H115.087V9.88535H115.317C115.521 9.47986 115.813 9.0454 116.185 8.58198C116.56 8.11856 117.065 7.72548 117.703 7.39447C118.342 7.06346 119.155 6.89795 120.144 6.89795C121.45 6.89795 122.627 7.22483 123.678 7.88271C124.729 8.5406 125.564 9.50882 126.186 10.7956C126.803 12.0783 127.116 13.6506 127.116 15.5084C127.116 17.3497 126.811 18.9096 126.202 20.1964C125.593 21.4832 124.767 22.4639 123.72 23.1383C122.673 23.8127 121.483 24.152 120.157 24.152C119.189 24.152 118.388 23.9907 117.749 23.6721C117.111 23.3535 116.602 22.9645 116.218 22.5094C115.834 22.0542 115.534 21.6239 115.321 21.2184H115.154V30.1351H111.174V30.1434ZM115.075 15.4878C115.075 16.5718 115.229 17.5193 115.542 18.3345C115.855 19.1496 116.306 19.7827 116.894 20.2378C117.482 20.6929 118.2 20.9205 119.043 20.9205C119.923 20.9205 120.657 20.6847 121.254 20.2171C121.846 19.7495 122.297 19.1041 122.602 18.289C122.906 17.4697 123.056 16.5387 123.056 15.4919C123.056 14.4533 122.906 13.5306 122.606 12.7238C122.305 11.9169 121.859 11.2839 121.266 10.8287C120.674 10.3695 119.931 10.1419 119.047 10.1419C118.196 10.1419 117.474 10.3653 116.881 10.808C116.289 11.2508 115.838 11.8714 115.534 12.6741C115.229 13.4644 115.075 14.4078 115.075 15.4878Z" fill="white"/>
  <path d="M131.893 4.73806C131.263 4.73806 130.721 4.53117 130.266 4.11327C129.811 3.69536 129.586 3.19057 129.586 2.60302C129.586 2.00719 129.811 1.49826 130.266 1.08035C130.721 0.66245 131.263 0.455566 131.893 0.455566C132.532 0.455566 133.074 0.666588 133.525 1.08035C133.975 1.49826 134.201 2.00719 134.201 2.60302C134.201 3.19057 133.975 3.69536 133.525 4.11327C133.074 4.53117 132.532 4.73806 131.893 4.73806ZM129.891 23.8624V7.11722H133.871V23.8624H129.891Z" fill="white"/>
  <path d="M143.609 24.1563C142.283 24.1563 141.093 23.817 140.046 23.1426C138.999 22.4681 138.169 21.4875 137.564 20.2007C136.955 18.9139 136.65 17.354 136.65 15.5127C136.65 13.6507 136.959 12.0826 137.58 10.7999C138.198 9.51721 139.037 8.54486 140.092 7.88697C141.148 7.22908 142.324 6.9022 143.622 6.9022C144.611 6.9022 145.424 7.06771 146.063 7.39872C146.701 7.72974 147.206 8.12695 147.581 8.58623C147.957 9.04965 148.245 9.47997 148.449 9.8896H148.616V1.53564H152.609V23.8625H148.695V21.2227H148.453C148.249 21.6282 147.953 22.0585 147.565 22.5136C147.177 22.9688 146.663 23.3536 146.025 23.6763C145.378 23.9949 144.577 24.1563 143.609 24.1563ZM144.719 20.9206C145.562 20.9206 146.28 20.6931 146.872 20.2379C147.464 19.7828 147.915 19.1497 148.224 18.3346C148.533 17.5195 148.687 16.5719 148.687 15.4879C148.687 14.4038 148.537 13.4645 148.232 12.666C147.928 11.8674 147.481 11.2468 146.893 10.7999C146.305 10.3572 145.579 10.1337 144.723 10.1337C143.835 10.1337 143.096 10.3613 142.504 10.8206C141.911 11.2799 141.465 11.9088 141.16 12.7156C140.86 13.5225 140.71 14.4452 140.71 15.4837C140.71 16.5306 140.86 17.4615 141.164 18.2808C141.469 19.1001 141.92 19.7414 142.516 20.209C143.113 20.6848 143.847 20.9206 144.719 20.9206Z" fill="white"/>
  <path d="M74.6628 53.3061V30.9751H83.1075C84.839 30.9751 86.2909 31.2937 87.4675 31.935C88.644 32.5764 89.5327 33.4536 90.1377 34.5666C90.7427 35.6838 91.0431 36.9499 91.0431 38.365C91.0431 39.7966 90.7385 41.0669 90.1294 42.1799C89.5202 43.2929 88.6232 44.166 87.4383 44.8032C86.2533 45.4404 84.7889 45.759 83.0532 45.759H77.4582V42.4323H82.5025C83.5164 42.4323 84.3425 42.2585 84.985 41.911C85.6317 41.5634 86.1073 41.0834 86.4202 40.471C86.7332 39.8587 86.8875 39.1594 86.8875 38.3691C86.8875 37.5788 86.7332 36.8796 86.4202 36.2755C86.1073 35.6714 85.6275 35.1997 84.9808 34.8645C84.3341 34.5252 83.4997 34.3556 82.4816 34.3556H78.7433V53.302H74.6628V53.3061Z" fill="white"/>
  <path d="M98.3482 53.6412C97.2801 53.6412 96.3163 53.4508 95.461 53.0702C94.6057 52.6895 93.934 52.1226 93.4375 51.3737C92.941 50.6248 92.6948 49.7021 92.6948 48.6056C92.6948 47.6622 92.8701 46.8802 93.2205 46.2637C93.571 45.6472 94.0508 45.1507 94.66 44.7824C95.2691 44.41 95.9575 44.1287 96.721 43.9383C97.4846 43.748 98.2815 43.6073 99.0992 43.5163C100.088 43.4128 100.889 43.3218 101.507 43.2391C102.124 43.1563 102.571 43.0239 102.854 42.846C103.138 42.6681 103.28 42.3908 103.28 42.0102V41.944C103.28 41.1206 103.034 40.4875 102.541 40.0365C102.049 39.5855 101.344 39.3621 100.422 39.3621C99.4455 39.3621 98.6737 39.5731 98.1062 39.9951C97.5388 40.4172 97.155 40.9137 96.9589 41.4888L93.2456 40.9675C93.5376 39.9496 94.0216 39.0973 94.6975 38.4104C95.3734 37.7235 96.1953 37.2063 97.1716 36.8629C98.1479 36.5195 99.2244 36.3457 100.405 36.3457C101.219 36.3457 102.028 36.4409 102.833 36.6312C103.639 36.8215 104.377 37.1319 105.045 37.5622C105.712 37.9966 106.246 38.58 106.655 39.3248C107.06 40.0655 107.264 40.9923 107.264 42.1053V53.3143H103.438V51.0137H103.305C103.063 51.4772 102.725 51.9116 102.287 52.3171C101.849 52.7226 101.306 53.0453 100.647 53.2895C99.9963 53.5212 99.2286 53.6412 98.3482 53.6412ZM99.3829 50.7407C100.18 50.7407 100.872 50.5834 101.461 50.2648C102.045 49.9504 102.5 49.5283 102.817 49.007C103.134 48.4856 103.292 47.9146 103.292 47.294V45.3203C103.167 45.4238 102.959 45.5148 102.662 45.6058C102.366 45.6927 102.032 45.7713 101.669 45.8334C101.306 45.8954 100.939 45.9575 100.58 46.0072C100.222 46.0568 99.9086 46.1023 99.6458 46.1396C99.0533 46.2182 98.5193 46.3506 98.052 46.5326C97.5805 46.7147 97.2134 46.9671 96.9422 47.2898C96.671 47.6126 96.5333 48.0305 96.5333 48.5394C96.5333 49.2676 96.8003 49.8138 97.3344 50.1862C97.8726 50.5545 98.5527 50.7407 99.3829 50.7407Z" fill="white"/>
  <path d="M112.517 59.583C111.975 59.583 111.474 59.5417 111.015 59.4589C110.556 59.3761 110.193 59.281 109.922 59.1693L110.844 56.095C111.424 56.2605 111.937 56.3432 112.396 56.335C112.851 56.3267 113.251 56.1901 113.598 55.917C113.944 55.644 114.24 55.193 114.482 54.5599L114.824 53.6537L108.699 36.561H112.922L116.814 49.2058H116.99L120.891 36.561H125.121L118.362 55.3336C118.045 56.2191 117.628 56.9804 117.111 57.6176C116.589 58.2548 115.955 58.7389 115.204 59.0782C114.453 59.4134 113.556 59.583 112.517 59.583Z" fill="white"/>
  <path d="M127.254 53.306V36.5567H131.059V39.4034H131.255C131.605 38.4435 132.19 37.6946 133.003 37.1525C133.817 36.6105 134.789 36.3415 135.915 36.3415C137.059 36.3415 138.022 36.6146 138.811 37.1649C139.599 37.7152 140.154 38.46 140.476 39.4034H140.651C141.026 38.4724 141.656 37.7318 142.549 37.1732C143.438 36.6188 144.498 36.3374 145.72 36.3374C147.272 36.3374 148.541 36.8256 149.525 37.798C150.506 38.7704 150.998 40.1937 150.998 42.0598V53.2977H147.009V42.668C147.009 41.6295 146.73 40.8682 146.175 40.384C145.62 39.8999 144.936 39.66 144.131 39.66C143.171 39.66 142.42 39.9579 141.882 40.5496C141.343 41.1412 141.072 41.9108 141.072 42.8542V53.2977H137.171V42.5025C137.171 41.6378 136.908 40.9468 136.387 40.4296C135.861 39.9123 135.181 39.6558 134.338 39.6558C133.767 39.6558 133.245 39.8006 132.778 40.0861C132.306 40.3716 131.935 40.7771 131.655 41.2985C131.376 41.8198 131.238 42.4239 131.238 43.1149V53.2977H127.254V53.306Z" fill="white"/>
  <path d="M161.9 53.6331C160.206 53.6331 158.746 53.2814 157.519 52.5821C156.292 51.8829 155.349 50.8857 154.69 49.5948C154.031 48.3038 153.701 46.7853 153.701 45.0309C153.701 43.3096 154.031 41.7952 154.694 40.4919C155.358 39.1885 156.288 38.1706 157.481 37.4383C158.675 36.7059 160.081 36.3418 161.691 36.3418C162.73 36.3418 163.715 36.5073 164.641 36.8383C165.567 37.1693 166.389 37.6783 167.103 38.3693C167.816 39.0602 168.379 39.9374 168.788 41.0008C169.197 42.0642 169.406 43.3303 169.406 44.7992V46.0115H155.566V43.351H165.592C165.584 42.5938 165.421 41.9194 165.096 41.3277C164.775 40.736 164.324 40.2684 163.748 39.925C163.172 39.5816 162.505 39.4119 161.741 39.4119C160.928 39.4119 160.214 39.6064 159.597 39.9954C158.979 40.3843 158.504 40.8932 158.162 41.5222C157.819 42.1511 157.648 42.8379 157.64 43.5869V45.9081C157.64 46.8804 157.819 47.7162 158.178 48.4114C158.537 49.1065 159.038 49.6361 159.684 50.0044C160.327 50.3726 161.082 50.5547 161.95 50.5547C162.53 50.5547 163.051 50.4719 163.523 50.3106C163.99 50.1451 164.399 49.9051 164.741 49.5865C165.087 49.2679 165.346 48.8707 165.521 48.399L169.239 48.8127C169.005 49.7851 168.559 50.6333 167.904 51.3574C167.249 52.0815 166.41 52.6401 165.392 53.0373C164.378 53.4345 163.214 53.6331 161.9 53.6331Z" fill="white"/>
  <path d="M176.136 43.4917V53.3021H172.156V36.557H175.961V39.4037H176.157C176.545 38.4644 177.167 37.7196 178.022 37.1693C178.877 36.619 179.933 36.3418 181.193 36.3418C182.357 36.3418 183.375 36.5901 184.243 37.0824C185.111 37.579 185.787 38.2948 186.267 39.2299C186.746 40.1691 186.984 41.307 186.976 42.6435V53.3062H182.996V43.2558C182.996 42.1387 182.703 41.2615 182.124 40.6284C181.539 39.9954 180.738 39.6809 179.712 39.6809C179.015 39.6809 178.398 39.8299 177.859 40.1319C177.321 40.4339 176.9 40.8684 176.595 41.4353C176.291 42.0021 176.136 42.6848 176.136 43.4917Z" fill="white"/>
  <path d="M198.841 36.5568V39.6104H189.133V36.5568H198.841ZM191.532 32.5474H195.512V48.2664C195.512 48.796 195.595 49.2015 195.758 49.4828C195.925 49.7642 196.142 49.9545 196.413 50.0538C196.684 50.1573 196.985 50.2069 197.314 50.2069C197.565 50.2069 197.794 50.1904 198.003 50.1531C198.211 50.1159 198.37 50.0828 198.483 50.0538L199.154 53.1405C198.942 53.215 198.641 53.2936 198.249 53.3805C197.857 53.4674 197.377 53.5171 196.814 53.5336C195.817 53.5626 194.919 53.4136 194.123 53.0826C193.321 52.7516 192.691 52.2385 192.224 51.5393C191.757 50.84 191.532 49.9711 191.536 48.9243V32.5474H191.532Z" fill="white"/>
  <path d="M214.645 40.984L211.016 41.3771C210.911 41.013 210.736 40.6737 210.482 40.3509C210.227 40.0323 209.889 39.7717 209.463 39.5772C209.038 39.3827 208.516 39.2834 207.903 39.2834C207.073 39.2834 206.38 39.4613 205.821 39.8172C205.262 40.173 204.982 40.6364 204.991 41.2033C204.982 41.6915 205.166 42.0846 205.533 42.3908C205.905 42.697 206.518 42.9453 207.373 43.1439L210.252 43.7562C211.85 44.0997 213.039 44.6376 213.819 45.3782C214.6 46.1189 214.992 47.0912 215 48.2911C214.992 49.3462 214.683 50.2731 214.07 51.0758C213.456 51.8785 212.609 52.5074 211.525 52.9543C210.44 53.4053 209.196 53.6287 207.786 53.6287C205.721 53.6287 204.056 53.1984 202.796 52.3378C201.536 51.4771 200.785 50.2772 200.543 48.7339L204.423 48.3615C204.599 49.1187 204.974 49.6897 205.546 50.0745C206.117 50.4593 206.86 50.6537 207.778 50.6537C208.725 50.6537 209.484 50.4634 210.06 50.0745C210.636 49.6897 210.924 49.2138 210.924 48.647C210.924 48.167 210.74 47.7698 210.369 47.4595C209.998 47.145 209.426 46.9091 208.65 46.7395L205.771 46.1395C204.152 45.8044 202.955 45.2417 202.175 44.4431C201.399 43.6487 201.015 42.6391 201.019 41.4185C201.01 40.3882 201.294 39.4903 201.87 38.729C202.446 37.9718 203.247 37.3801 204.277 36.9622C205.308 36.5443 206.497 36.3374 207.845 36.3374C209.822 36.3374 211.383 36.7553 212.522 37.5911C213.669 38.4311 214.374 39.5606 214.645 40.984Z" fill="white"/>
</svg>