<svg xmlns="http://www.w3.org/2000/svg" width="194" height="54" viewBox="0 0 194 54" fill="none">
  <path d="M31.4083 0H0V8.88401H31.4083V0Z" fill="#4990E2"/>
  <path d="M22.574 22.644L0 22.495L8.0981 13.76H31.4083L22.574 22.644Z" fill="#4990E2"/>
  <path d="M10.8964 22.454L0 33.83V22.495L10.0663 21.6122L10.8964 22.454Z" fill="#4990E2"/>
  <path d="M31.4083 6.13872V13.76H23.543V0L31.4083 5.95992" fill="#4990E2"/>
  <path d="M0 41.373V53.2295L16.1849 37.5214L19.6818 40.8441H24.3431L42.8644 22.7222L45.3283 25.1695L49.3248 9.75192L34.5409 13.5439L36.9072 15.8906L21.8679 30.8053L18.7616 27.7248H13.9012L0 41.373Z" fill="#1C2630"/>
  <path d="M67.2149 21.072V0.972214H74.8172C76.376 0.972214 77.6831 1.24041 78.7423 1.7768C79.8015 2.3132 80.6016 3.06564 81.1462 4.0304C81.6908 4.99516 81.9613 6.1201 81.9613 7.40148C81.9613 8.69031 81.6871 9.8078 81.1349 10.7539C80.5828 11.7001 79.7752 12.4302 78.7047 12.9442C77.6343 13.4582 76.3234 13.7153 74.7646 13.7153H69.3521V10.6943H74.2688C75.1815 10.6943 75.9252 10.5677 76.5037 10.3144C77.0859 10.0611 77.5141 9.69232 77.7958 9.20435C78.0775 8.71638 78.2165 8.11667 78.2165 7.40148C78.2165 6.68629 78.0737 6.07912 77.792 5.57253C77.5066 5.06593 77.0746 4.67854 76.4962 4.41407C75.914 4.1496 75.1665 4.0155 74.25 4.0155H70.8846V21.072H67.2149ZM77.6868 11.9645L82.705 21.072H78.6071L73.6791 11.9645H77.6868Z" fill="#4990E2"/>
  <path d="M89.0039 21.3775C88.0423 21.3775 87.1747 21.2061 86.4047 20.8634C85.6347 20.5207 85.03 20.0104 84.583 19.3362C84.136 18.662 83.9144 17.8313 83.9144 16.8442C83.9144 15.9949 84.0722 15.2909 84.3877 14.7359C84.7032 14.1809 85.1351 13.7339 85.6835 13.4024C86.2319 13.0671 86.8516 12.8138 87.539 12.6425C88.2264 12.4711 88.9438 12.3445 89.68 12.2625C90.5702 12.1694 91.2913 12.0875 91.8472 12.013C92.4031 11.9385 92.805 11.8193 93.0604 11.6591C93.3159 11.4989 93.4436 11.2493 93.4436 10.9067V10.8471C93.4436 10.1058 93.222 9.53587 92.7787 9.12985C92.3355 8.72383 91.7007 8.52269 90.8706 8.52269C89.9917 8.52269 89.2969 8.71266 88.786 9.0926C88.2752 9.47255 87.9296 9.91954 87.7531 10.4373L84.4102 9.96797C84.6731 9.05163 85.1088 8.28429 85.7173 7.66595C86.3258 7.04761 87.0657 6.58199 87.9447 6.27282C88.8236 5.96365 89.7927 5.8072 90.8556 5.8072C91.5881 5.8072 92.3167 5.89287 93.0417 6.06422C93.7666 6.23557 94.4314 6.51494 95.0324 6.90233C95.6334 7.29345 96.1141 7.81867 96.4822 8.48916C96.8466 9.15593 97.0306 9.99032 97.0306 10.9923V21.0832H93.5863V19.0121H93.4661C93.2482 19.4293 92.944 19.8205 92.5496 20.1855C92.1552 20.5505 91.6669 20.8411 91.0735 21.0609C90.4875 21.2657 89.7964 21.3775 89.0039 21.3775ZM89.9354 18.7663C90.6528 18.7663 91.2763 18.6247 91.8059 18.3379C92.3318 18.0548 92.7412 17.6749 93.0266 17.2055C93.3121 16.7362 93.4548 16.2222 93.4548 15.6634V13.8866C93.3421 13.9797 93.1543 14.0617 92.8877 14.1436C92.621 14.2219 92.3205 14.2926 91.9937 14.3485C91.6632 14.4081 91.3364 14.4603 91.0134 14.505C90.6904 14.5497 90.4087 14.5906 90.172 14.6242C89.6387 14.6949 89.1579 14.8141 88.7372 14.978C88.3128 15.1419 87.9822 15.3691 87.7381 15.6597C87.4939 15.9502 87.37 16.3265 87.37 16.7846C87.37 17.4402 87.6104 17.9319 88.0912 18.2672C88.5757 18.5987 89.1879 18.7663 89.9354 18.7663Z" fill="#4990E2"/>
  <path d="M100.084 26.7265V5.99717H103.608V8.48916H103.814C103.998 8.12411 104.261 7.73299 104.595 7.3158C104.933 6.8986 105.388 6.54473 105.963 6.24674C106.537 5.94874 107.27 5.79974 108.16 5.79974C109.336 5.79974 110.395 6.09402 111.341 6.68628C112.288 7.27855 113.039 8.15019 113.599 9.30865C114.155 10.4634 114.436 11.8789 114.436 13.5514C114.436 15.209 114.162 16.6133 113.614 17.7717C113.065 18.9302 112.322 19.813 111.379 20.4202C110.436 21.0273 109.366 21.3328 108.171 21.3328C107.3 21.3328 106.579 21.1875 106.004 20.9007C105.429 20.6139 104.971 20.2637 104.625 19.854C104.28 19.4442 104.009 19.0568 103.818 18.6918H103.668V26.7191H100.084V26.7265ZM103.596 13.5327C103.596 14.5087 103.735 15.3617 104.017 16.0955C104.299 16.8293 104.704 17.3992 105.234 17.809C105.764 18.2187 106.41 18.4236 107.168 18.4236C107.961 18.4236 108.622 18.2113 109.159 17.7904C109.692 17.3694 110.098 16.7883 110.372 16.0545C110.646 15.317 110.782 14.4789 110.782 13.5365C110.782 12.6015 110.646 11.7708 110.376 11.0445C110.106 10.3181 109.704 9.74819 109.17 9.33845C108.637 8.92498 107.968 8.7201 107.172 8.7201C106.406 8.7201 105.756 8.92125 105.223 9.31982C104.689 9.71839 104.284 10.2771 104.009 10.9998C103.735 11.7112 103.596 12.5605 103.596 13.5327Z" fill="#4990E2"/>
  <path d="M118.737 3.85532C118.17 3.85532 117.682 3.66908 117.272 3.29286C116.863 2.91664 116.66 2.46219 116.66 1.93325C116.66 1.39686 116.863 0.938687 117.272 0.562467C117.682 0.186247 118.17 0 118.737 0C119.312 0 119.8 0.189972 120.206 0.562467C120.612 0.938687 120.814 1.39686 120.814 1.93325C120.814 2.46219 120.612 2.91664 120.206 3.29286C119.8 3.66908 119.312 3.85532 118.737 3.85532ZM116.934 21.072V5.99717H120.518V21.072H116.934Z" fill="#4990E2"/>
  <path d="M129.284 21.3365C128.09 21.3365 127.019 21.0311 126.077 20.4239C125.134 19.8167 124.386 18.9339 123.842 17.7755C123.293 16.617 123.019 15.2127 123.019 13.5551C123.019 11.8789 123.297 10.4671 123.857 9.31238C124.413 8.15764 125.168 7.28228 126.118 6.69001C127.068 6.09774 128.128 5.80347 129.296 5.80347C130.186 5.80347 130.918 5.95247 131.493 6.25047C132.068 6.54846 132.522 6.90606 132.86 7.31953C133.198 7.73672 133.457 8.12412 133.641 8.49289H133.792V0.972214H137.386V21.072H133.863V18.6955H133.645C133.461 19.0606 133.194 19.448 132.845 19.8577C132.496 20.2675 132.034 20.6139 131.459 20.9044C130.877 21.1912 130.156 21.3365 129.284 21.3365ZM130.284 18.4236C131.042 18.4236 131.688 18.2187 132.222 17.809C132.755 17.3992 133.161 16.8293 133.439 16.0955C133.717 15.3617 133.856 14.5087 133.856 13.5327C133.856 12.5568 133.72 11.7112 133.446 10.9923C133.172 10.2734 132.77 9.71467 132.24 9.31238C131.711 8.91381 131.057 8.71266 130.287 8.71266C129.487 8.71266 128.822 8.91753 128.289 9.331C127.756 9.74447 127.354 10.3107 127.08 11.037C126.809 11.7634 126.674 12.5941 126.674 13.529C126.674 14.4714 126.809 15.3095 127.083 16.0471C127.358 16.7846 127.763 17.362 128.3 17.7829C128.837 18.2113 129.498 18.4236 130.284 18.4236Z" fill="#4990E2"/>
  <path d="M67.2149 47.5788V27.4752H74.8172C76.376 27.4752 77.6831 27.7621 78.7423 28.3394C79.8015 28.9168 80.6016 29.7065 81.1462 30.7085C81.6908 31.7142 81.9613 32.8541 81.9613 34.128C81.9613 35.4168 81.6871 36.5604 81.1387 37.5624C80.5903 38.5644 79.7827 39.3504 78.716 39.924C77.6493 40.4977 76.3309 40.7845 74.7684 40.7845H69.7315V37.7896H74.2726C75.1853 37.7896 75.929 37.6332 76.5074 37.3203C77.0896 37.0074 77.5178 36.5753 77.7995 36.024C78.0812 35.4727 78.2202 34.8432 78.2202 34.1317C78.2202 33.4203 78.0812 32.7907 77.7995 32.2469C77.5178 31.7031 77.0859 31.2784 76.5037 30.9767C75.9215 30.6712 75.1703 30.5185 74.2538 30.5185H70.8883V47.5751H67.2149V47.5788Z" fill="#1C2630"/>
  <path d="M88.538 47.8805C87.5765 47.8805 86.7088 47.7092 85.9388 47.3665C85.1688 47.0238 84.5641 46.5134 84.1171 45.8392C83.6702 45.165 83.4485 44.3344 83.4485 43.3472C83.4485 42.498 83.6063 41.7939 83.9218 41.2389C84.2373 40.6839 84.6693 40.2369 85.2177 39.9054C85.766 39.5701 86.3858 39.3168 87.0732 39.1455C87.7605 38.9741 88.4779 38.8475 89.2141 38.7656C90.1043 38.6724 90.8255 38.5905 91.3814 38.516C91.9373 38.4415 92.3392 38.3223 92.5946 38.1621C92.85 38.0019 92.9777 37.7524 92.9777 37.4097V37.3501C92.9777 36.6088 92.7561 36.0389 92.3129 35.6329C91.8697 35.2268 91.2349 35.0257 90.4048 35.0257C89.5259 35.0257 88.831 35.2157 88.3202 35.5956C87.8094 35.9756 87.4638 36.4226 87.2873 36.9403L83.9444 36.471C84.2073 35.5546 84.643 34.7873 85.2515 34.169C85.8599 33.5506 86.5999 33.085 87.4788 32.7758C88.3577 32.4667 89.3268 32.3102 90.3898 32.3102C91.1222 32.3102 91.8509 32.3959 92.5758 32.5672C93.3007 32.7386 93.9656 33.018 94.5665 33.4053C95.1675 33.7965 95.6483 34.3217 96.0164 34.9922C96.3807 35.6589 96.5648 36.4933 96.5648 37.4953V47.5862H93.1204V45.5152H93.0003C92.7824 45.9324 92.4782 46.3235 92.0838 46.6885C91.6894 47.0536 91.2011 47.3441 90.6076 47.5639C90.0217 47.7725 89.3306 47.8805 88.538 47.8805ZM89.4695 45.2693C90.1869 45.2693 90.8105 45.1278 91.3401 44.8409C91.8659 44.5578 92.2753 44.1779 92.5608 43.7086C92.8462 43.2392 92.989 42.7252 92.989 42.1664V40.3896C92.8763 40.4828 92.6885 40.5647 92.4218 40.6467C92.1551 40.7249 91.8546 40.7956 91.5279 40.8515C91.2011 40.9074 90.8706 40.9633 90.5475 41.008C90.2245 41.0527 89.9428 41.0936 89.7062 41.1272C89.1728 41.1979 88.692 41.3171 88.2713 41.481C87.8469 41.6449 87.5164 41.8722 87.2722 42.1627C87.0281 42.4533 86.9041 42.8295 86.9041 43.2876C86.9041 43.9432 87.1445 44.4349 87.6253 44.7702C88.1098 45.1017 88.7221 45.2693 89.4695 45.2693Z" fill="#1C2630"/>
  <path d="M101.293 53.2295C100.805 53.2295 100.354 53.1923 99.9413 53.1178C99.5281 53.0433 99.2014 52.9576 98.9572 52.857L99.7873 50.0894C100.309 50.2384 100.771 50.3129 101.185 50.3054C101.594 50.298 101.955 50.1751 102.266 49.9292C102.578 49.6834 102.845 49.2774 103.063 48.7074L103.371 47.8917L97.8567 32.5039H101.658L105.162 43.8874H105.32L108.832 32.5039H112.641L106.556 49.404C106.27 50.2012 105.895 50.8865 105.429 51.4602C104.959 52.0338 104.389 52.4696 103.712 52.7751C103.036 53.0768 102.229 53.2295 101.293 53.2295Z" fill="#1C2630"/>
  <path d="M114.56 47.5788V32.5002H117.986V35.063H118.162C118.478 34.1988 119.004 33.5245 119.736 33.0366C120.469 32.5486 121.344 32.3065 122.358 32.3065C123.387 32.3065 124.255 32.5523 124.965 33.0478C125.675 33.5432 126.174 34.2137 126.463 35.063H126.621C126.959 34.2248 127.526 33.5581 128.33 33.0552C129.13 32.5561 130.084 32.3028 131.185 32.3028C132.582 32.3028 133.724 32.7423 134.61 33.6177C135.493 34.493 135.936 35.7744 135.936 37.4544V47.5713H132.345V38.0019C132.345 37.067 132.094 36.3816 131.594 35.9458C131.095 35.5099 130.479 35.2939 129.754 35.2939C128.89 35.2939 128.214 35.5621 127.729 36.0948C127.245 36.6274 127 37.3203 127 38.1696V47.5713H123.488V37.8529C123.488 37.0744 123.252 36.4524 122.782 35.9867C122.309 35.5211 121.697 35.2902 120.938 35.2902C120.424 35.2902 119.954 35.4205 119.533 35.6776C119.109 35.9346 118.775 36.2996 118.523 36.769C118.271 37.2383 118.147 37.7822 118.147 38.4042V47.5713H114.56V47.5788Z" fill="#1C2630"/>
  <path d="M145.751 47.8731C144.226 47.8731 142.911 47.5564 141.807 46.9269C140.702 46.2974 139.854 45.3997 139.26 44.2375C138.667 43.0753 138.37 41.7083 138.37 40.1289C138.37 38.5793 138.667 37.216 139.264 36.0426C139.861 34.8693 140.699 33.9529 141.773 33.2936C142.847 32.6343 144.113 32.3065 145.563 32.3065C146.498 32.3065 147.384 32.4555 148.218 32.7535C149.052 33.0515 149.792 33.5097 150.434 34.1317C151.077 34.7538 151.584 35.5435 151.952 36.5008C152.32 37.4581 152.508 38.5979 152.508 39.9203V41.0117H140.049V38.6166H149.075C149.067 37.9349 148.921 37.3277 148.628 36.7951C148.339 36.2624 147.933 35.8415 147.415 35.5323C146.896 35.2231 146.295 35.0704 145.608 35.0704C144.875 35.0704 144.233 35.2455 143.677 35.5956C143.121 35.9458 142.693 36.4039 142.385 36.9701C142.077 37.5363 141.923 38.1547 141.916 38.8289V40.9186C141.916 41.7939 142.077 42.5464 142.4 43.1722C142.723 43.798 143.174 44.2748 143.756 44.6063C144.335 44.9378 145.014 45.1017 145.796 45.1017C146.318 45.1017 146.787 45.0272 147.212 44.8819C147.632 44.7329 148 44.5169 148.308 44.2301C148.62 43.9432 148.853 43.5856 149.011 43.161L152.358 43.5335C152.147 44.4089 151.745 45.1725 151.156 45.8243C150.566 46.4762 149.811 46.9791 148.894 47.3367C147.982 47.6943 146.934 47.8731 145.751 47.8731Z" fill="#1C2630"/>
  <path d="M158.567 38.7432V47.5751H154.983V32.5002H158.409V35.063H158.586C158.935 34.2174 159.495 33.5469 160.265 33.0515C161.035 32.5561 161.985 32.3065 163.119 32.3065C164.167 32.3065 165.084 32.53 165.865 32.9733C166.646 33.4203 167.255 34.0647 167.687 34.9065C168.118 35.7521 168.333 36.7764 168.325 37.9796V47.5788H164.742V38.5309C164.742 37.5251 164.479 36.7355 163.957 36.1655C163.431 35.5956 162.71 35.3125 161.786 35.3125C161.158 35.3125 160.603 35.4466 160.118 35.7185C159.634 35.9905 159.254 36.3816 158.98 36.8919C158.706 37.4022 158.567 38.0168 158.567 38.7432Z" fill="#1C2630"/>
  <path d="M179.007 32.5002V35.2492H170.267V32.5002H179.007ZM172.427 28.8907H176.01V43.0418C176.01 43.5186 176.085 43.8836 176.231 44.1369C176.382 44.3902 176.577 44.5616 176.821 44.651C177.065 44.7441 177.336 44.7888 177.633 44.7888C177.858 44.7888 178.064 44.7739 178.252 44.7404C178.44 44.7068 178.583 44.677 178.684 44.651L179.289 47.4298C179.097 47.4968 178.827 47.5676 178.474 47.6458C178.121 47.7241 177.689 47.7688 177.182 47.7837C176.284 47.8097 175.477 47.6756 174.759 47.3776C174.038 47.0796 173.471 46.6177 173.05 45.9882C172.629 45.3587 172.427 44.5765 172.43 43.6341V28.8907H172.427Z" fill="#1C2630"/>
  <path d="M193.235 36.4859L189.967 36.8398C189.873 36.512 189.716 36.2065 189.486 35.916C189.257 35.6291 188.953 35.3945 188.57 35.2194C188.187 35.0443 187.717 34.9549 187.165 34.9549C186.418 34.9549 185.794 35.1151 185.291 35.4354C184.788 35.7558 184.536 36.173 184.543 36.6833C184.536 37.1229 184.701 37.4767 185.032 37.7524C185.366 38.028 185.918 38.2515 186.688 38.4303L189.28 38.9816C190.718 39.2908 191.789 39.775 192.491 40.4418C193.194 41.1085 193.547 41.9839 193.554 43.0641C193.547 44.014 193.269 44.8484 192.717 45.571C192.164 46.2937 191.402 46.8599 190.425 47.2622C189.449 47.6682 188.33 47.8693 187.06 47.8693C185.201 47.8693 183.702 47.4819 182.568 46.7071C181.433 45.9324 180.757 44.8521 180.539 43.4627L184.033 43.1275C184.19 43.8091 184.528 44.3232 185.043 44.6696C185.558 45.016 186.226 45.1911 187.052 45.1911C187.905 45.1911 188.589 45.0197 189.107 44.6696C189.625 44.3232 189.885 43.8948 189.885 43.3845C189.885 42.9524 189.719 42.5948 189.385 42.3154C189.051 42.0323 188.536 41.82 187.837 41.6673L185.246 41.1272C183.788 40.8255 182.71 40.3189 182.008 39.5999C181.309 38.8847 180.964 37.9759 180.968 36.877C180.96 35.9495 181.216 35.1412 181.734 34.4558C182.252 33.7741 182.973 33.2415 183.901 32.8652C184.829 32.489 185.899 32.3028 187.113 32.3028C188.893 32.3028 190.298 32.679 191.323 33.4314C192.356 34.1876 192.991 35.2045 193.235 36.4859Z" fill="#1C2630"/>
</svg>